<?xml version="1.0" encoding="iso-8859-1"?>
<!-- Generator: Adobe Illustrator 19.0.0, SVG Export Plug-In . SVG Version: 6.00 Build 0)  -->
<svg version="1.1" id="Layer_1" xmlns="http://www.w3.org/2000/svg" xmlns:xlink="http://www.w3.org/1999/xlink" x="0px" y="0px"
	 viewBox="0 0 512 512" style="enable-background:new 0 0 512 512;" xml:space="preserve">
<path style="fill:#BAEFEF;" d="M406.069,163.31c-19.501,0-35.31,15.809-35.31,35.31h70.621
	C441.379,179.119,425.57,163.31,406.069,163.31z"/>
<path style="fill:#FF5A4E;" d="M459.034,339.862h-17.655c0-102.216-83.159-185.379-185.379-185.379S70.621,237.646,70.621,339.862
	H52.966c0-111.957,91.082-203.034,203.034-203.034S459.034,227.905,459.034,339.862z"/>
<path style="fill:#FFC83C;" d="M441.379,339.862h-17.655c0-92.483-75.242-167.724-167.724-167.724S88.276,247.38,88.276,339.862
	H70.621c0-102.216,83.159-185.379,185.379-185.379S441.379,237.646,441.379,339.862z"/>
<path style="fill:#82BE00;" d="M423.724,339.862h-17.655c0-82.75-67.319-150.069-150.069-150.069s-150.069,67.319-150.069,150.069
	H88.276c0-92.483,75.242-167.724,167.724-167.724S423.724,247.38,423.724,339.862z"/>
<path style="fill:#00D7F0;" d="M406.069,339.862h-17.655c0-73.017-59.401-132.414-132.414-132.414s-132.414,59.396-132.414,132.414
	h-17.655c0-82.75,67.319-150.069,150.069-150.069S406.069,257.112,406.069,339.862z"/>
<path style="fill:#6C91E8;" d="M388.414,339.862h-17.655c0-63.276-51.478-114.759-114.759-114.759s-114.759,51.482-114.759,114.759
	h-17.655c0-73.017,59.401-132.414,132.414-132.414S388.414,266.845,388.414,339.862z"/>
<g>
	<path style="fill:#BAEFEF;" d="M132.414,322.207c-29.252,0-52.966,23.713-52.966,52.966h105.931
		C185.379,345.92,161.666,322.207,132.414,322.207z"/>
	<path style="fill:#BAEFEF;" d="M66.207,308.966C29.642,308.966,0,338.607,0,375.172h132.414
		C132.414,338.607,102.772,308.966,66.207,308.966z"/>
</g>
<path style="fill:#8DE1E1;" d="M85.123,311.743c-5.997-1.785-12.339-2.777-18.916-2.777C29.642,308.966,0,338.607,0,375.172h37.833
	C37.833,345.186,57.782,319.887,85.123,311.743z"/>
<path style="fill:#BAEFEF;" d="M467.862,331.034c-24.376,0-44.138,19.761-44.138,44.138H512
	C512,350.795,492.238,331.034,467.862,331.034z"/>
<path style="fill:#8DE1E1;" d="M335.448,339.862c-19.501,0-35.31,15.809-35.31,35.31h70.621
	C370.759,355.671,354.95,339.862,335.448,339.862z"/>
<path style="fill:#BAEFEF;" d="M406.069,313.379c-34.127,0-61.793,27.666-61.793,61.793h123.586
	C467.862,341.045,440.196,313.379,406.069,313.379z"/>
<path style="fill:#8DE1E1;" d="M423.724,315.972c-5.598-1.667-11.516-2.593-17.655-2.593c-34.127,0-61.793,27.666-61.793,61.793
	h35.31C379.586,347.186,398.206,323.573,423.724,315.972z"/>
<g>
	<path style="fill:#BAEFEF;" d="M317.793,286.897c-14.626,0-26.483,11.857-26.483,26.483h52.966
		C344.276,298.753,332.419,286.897,317.793,286.897z"/>
	<path style="fill:#BAEFEF;" d="M220.69,286.897c-9.751,0-17.655,7.904-17.655,17.655h35.31
		C238.345,294.801,230.441,286.897,220.69,286.897z"/>
	<path style="fill:#BAEFEF;" d="M282.483,278.069c-19.501,0-35.31,15.809-35.31,35.31h70.621
		C317.793,293.878,301.984,278.069,282.483,278.069z"/>
	<path style="fill:#BAEFEF;" d="M97.103,180.966c-14.626,0-26.483,11.857-26.483,26.483h52.966
		C123.586,192.822,111.73,180.966,97.103,180.966z"/>
	<path style="fill:#BAEFEF;" d="M132.414,172.138c-19.501,0-35.31,15.809-35.31,35.31h70.621
		C167.724,187.947,151.915,172.138,132.414,172.138z"/>
</g>
<g>
</g>
<g>
</g>
<g>
</g>
<g>
</g>
<g>
</g>
<g>
</g>
<g>
</g>
<g>
</g>
<g>
</g>
<g>
</g>
<g>
</g>
<g>
</g>
<g>
</g>
<g>
</g>
<g>
</g>
</svg>
